<svg xmlns="http://www.w3.org/2000/svg" viewBox="0 0 300 80" fill="none" role="img" aria-label="NeuroIA">
  <path d="M39 49C18 54 8 39 12 16C32 12 48 22 43 42Z" fill="#9ecfd0"/>
  <path d="M42 49C36 28 48 13 70 15C74 37 63 54 46 55Z" fill="#cbc4e8"/>
  <path d="M13 16C11 34 19 47 35 48C18 44 17 32 19 16Z" fill="#73b7bd" fill-opacity=".45"/>
  <path d="M69 16C71 35 62 49 47 51C61 43 65 31 64 16Z" fill="#aaa0ce" fill-opacity=".45"/>
  <path d="M40 68C42 51 37 36 25 28M41 52C44 42 51 34 59 29" stroke="#17343b" stroke-width="4.5" stroke-linecap="round" stroke-linejoin="round"/>
  <path d="M29 69C34 66 44 66 50 69" stroke="#17343b" stroke-width="4.5" stroke-linecap="round"/>
  <text x="90" y="54" fill="#17343b" font-family="DM Sans, system-ui, sans-serif" font-size="42" font-weight="600" letter-spacing="-2">Neuro<tspan font-weight="400">IA</tspan></text>
</svg>
